<svg xmlns="http://www.w3.org/2000/svg" width="53.043" height="52.008" viewBox="0 0 53.043 52.008"><defs><style>.a{fill:#ff9100;}.b{fill:#ea4335;}.c{fill:#00aa4e;}.d{fill:#3664d0;}.e{fill:#e8e8e8;}.f{fill:#4285f3;}</style></defs><g transform="translate(-105.534 -673.364)"><path class="a" d="M498.812,937.39H487.939c0,.073,0,.145,0,.218a16.77,16.77,0,0,1-1.664,7.3l5.315,6.866a1.066,1.066,0,0,0,1.539.151,19.419,19.419,0,0,0,6.741-13.41h0A1.061,1.061,0,0,0,498.812,937.39Z" transform="translate(-341.299 -236.673)"/><path class="b" d="M396.859,673.366a1.061,1.061,0,0,0-1.108,1.062V685.1a16.955,16.955,0,0,1,10.166,10.464h10.719a1.061,1.061,0,0,0,1.063-1.1A21.963,21.963,0,0,0,396.859,673.366Z" transform="translate(-260.151 0)"/><path class="c" d="M139.856,745.221a16.868,16.868,0,1,1-10.084-30.388v-6.079a1.064,1.064,0,0,0-1.112-1.063,24.238,24.238,0,0,0,.92,48.449h.379a24.12,24.12,0,0,0,13.6-4.3h0a1.063,1.063,0,0,0,.233-1.524Z" transform="translate(0 -30.769)"/><path class="d" d="M349.579,1069.968a16.783,16.783,0,0,1-10.084,3.353v7.566h.187a24.118,24.118,0,0,0,13.6-4.3h0a1.062,1.062,0,0,0,.233-1.524Z" transform="translate(-209.723 -355.516)"/><path class="e" d="M234.79,821.109a13.7,13.7,0,0,1-13.681,13.681h0a13.682,13.682,0,0,1,0-27.364h0A13.7,13.7,0,0,1,234.79,821.109Z" transform="translate(-91.336 -120.174)"/><path class="f" d="M291.54,851.368a4.581,4.581,0,0,1-4.7,4.585v1.364a1.566,1.566,0,1,1-3.131,0v-1.364a5.328,5.328,0,0,1-3.288-.971,1.566,1.566,0,1,1,1.785-2.573,2.207,2.207,0,0,0,1.214.412h3.536a1.454,1.454,0,0,0,0-2.908h-3.362a4.586,4.586,0,1,1,.116-9.17V839.38a1.566,1.566,0,1,1,3.131,0v1.364a5.328,5.328,0,0,1,3.839,1.7,1.566,1.566,0,1,1-2.285,2.142,2.187,2.187,0,0,0-1.559-.709h-3.243a1.454,1.454,0,0,0,0,2.908h3.362a4.59,4.59,0,0,1,4.585,4.585Z" transform="translate(-155.502 -147.413)"/></g></svg>